<?xml version="1.0" encoding="UTF-8" standalone="no"?>
<svg viewBox="0 0 121.91239 121.65553" xmlns="http://www.w3.org/2000/svg" xmlns:xlink="http://www.w3.org/1999/xlink">
<defs>
<filter id="filter7718">
<feGaussianBlur stdDeviation="1.5892"/>
</filter>
<filter id="filter7230">
<feGaussianBlur stdDeviation=".8372"/>
</filter>
<linearGradient gradientUnits="userSpaceOnUse" id="linearGradient9225" x1="-717.87305" x2="-714.43286" y1="-180.48189" y2="-288.63315">
<stop offset="0" stop-color="#333"/>
<stop offset="1" stop-color="#4d4d4d"/>
</linearGradient>
<linearGradient id="linearGradient7195">
<stop offset="0"/>
<stop offset="1" stop-color="#333"/>
</linearGradient>
<linearGradient gradientUnits="userSpaceOnUse" id="linearGradient9231" x1="-710.48291" x2="-711.21362" y1="-38.75839" y2="69.39286">
<stop offset="0" stop-color="#333"/>
<stop offset="1"/>
</linearGradient>
<linearGradient gradientUnits="userSpaceOnUse" id="linearGradient9235" x1="-714.1109" x2="-702.73285" y1="-154.55005" y2="-90.47684">
<stop offset="0" stop-color="#fff"/>
<stop offset=".25" stop-color="#b3b3b3"/>
<stop offset=".6605" stop-color="#999"/>
<stop offset="1" stop-color="#f2f2f2"/>
</linearGradient>
<linearGradient gradientUnits="userSpaceOnUse" id="linearGradient9239" x1="-521.27649" x2="-526.88702" y1="-180.7838" y2="-192.07495">
<stop offset="0"/>
<stop offset="1" stop-opacity="0"/>
</linearGradient>
<radialGradient cx="-560.75928" cy="116.08312" gradientTransform="matrix(1,0,0,.78355,-155.01202,-217.92825)" gradientUnits="userSpaceOnUse" id="radialGradient9221" r="84.742">
<stop offset="0" stop-color="#fff"/>
<stop offset="1" stop-color="#e6e7e9"/>
</radialGradient>
<radialGradient cx="-707.37677" cy="-129.00249" gradientUnits="userSpaceOnUse" id="radialGradient9223" r="152">
<stop offset="0" stop-color="#4d4d4d"/>
<stop offset=".8823" stop-color="#999"/>
<stop offset=".9159" stop-color="#e6e6e6"/>
<stop offset=".9472" stop-color="#4d4d4d"/>
<stop offset="1" stop-color="#ccc"/>
</radialGradient>
<radialGradient cx="-511.55228" cy="-140.60402" gradientUnits="userSpaceOnUse" id="radialGradient9237" r="10.85111">
<stop offset="0" stop-color="#ccc"/>
<stop offset=".5476" stop-color="#fff"/>
<stop offset="1" stop-color="#999"/>
</radialGradient>
<radialGradient cx="-807.26538" cy="-80.62443" gradientTransform="matrix(.99935,-.03611,.03568,.98734,2.51734,-30.7296)" gradientUnits="userSpaceOnUse" id="radialGradient9227" r="40.96449" xlink:href="#linearGradient7195"/>
<radialGradient cx="-609.86957" cy="-82.82304" gradientTransform="matrix(.99877,-.04965,.05352,1.07654,3.95242,-22.83884)" gradientUnits="userSpaceOnUse" id="radialGradient9229" r="40.96449" xlink:href="#linearGradient7195"/>
<radialGradient cx="-466.21957" cy="-123.89156" gradientUnits="userSpaceOnUse" id="radialGradient9233" r="38.36446" xlink:href="#linearGradient7195"/>
</defs>
<g transform="matrix(.67119,0,0,.67119,71.17088,219.68182)">
<path d="m-15.96875-316.03125c-60.74634.7311-75.5625,58.1875-75.5625,58.1875l-.53125,2.9375 1.0625-.3125c-.74216,2.8232-1.30957,5.6858-1.71875,8.625l-1.90625.65625c0,0-1.14681,25.37543 2.9375,37.09375 4.30582,12.35384 21.90625,32.59375 21.90625,32.59375l1-4.375c1.47401,1.35409 2.98431,2.66536 4.5625,3.90625l-.625,2.25c0,0 15.72161,17.01373 50.21875,17.15625 28.6216.11825 49.09375-16.78125 49.09375-16.78125l-.5-2.28125c1.62837-1.26184 3.19942-2.58723 4.71875-3.96875l.6875,3.0625c0,0 17.56918-20.2399 21.875-32.59375 4.08431-11.71831 2.9375-37.09375 2.9375-37.09375l-1.40625-.5c-.38955-2.57436-.91625-5.07837-1.5625-7.5625l.5.125 .53125-1.875c0,0-15.5383-60.00438-78.21875-59.25zm4.53125,13.5625c19.14522-.16146 36.67692,11.13422 47.53125,25.40625 1.5955,2.09788.53167,5.33779 1.59375,7.75 1.59261,3.61716 6.9375,9.59375 6.9375,9.59375l5.8125,1.625c.81028,2.29293 1.5075,4.6338 2.0625,7.03125l-3.53125-1.25c0,0 .77641,8.17776-2.9375,9.875-8.07752,3.6914-24.03125-4.8125-24.03125-4.8125l.25.875c-2.81029-1.16453-25.48769-10.39395-38.21875-10.25-11.68865.13217-31.2854,8.28062-36.5,10.53125l.03125-.125c0,0-.71122.37746-1.6875.84375l-.53125.21875v.0312c-4.61287,2.14705-15.54034,6.5851-21.8125,3.71875-3.71391-1.69724-2.9375-9.875-2.9375-9.875l-3.09375,1.0938c.60758-2.80175 1.39021-5.52627 2.34375-8.1875l4.625-1.34375c0,0 5.55428-5.28543 7.5-8.53125 2.20122-3.67204 1.58762-8.89126 4.53125-12 12.57556-13.28097 24.73965-20.98392 50.1875-22.1875 .62076-.0294 1.25741-.026 1.875-.0312zm37,67.90625 2.59375,9.21875c0,0 15.27724,1.1908 17.75,7.0625 3.46091,8.21811-10.28125,24.6875-10.28125,24.6875l.59375,2.625c-1.44335,1.54361-2.94764,3.06151-4.53125,4.46875l-.625-2.71875c0,0-22.34172,19.32394-32.84375,13.78125-4.43162-2.3389-3.03125-14.71875-3.03125-14.71875h-.4375c.80649-5.84945 3.64914-22.98249 10.375-29.09375 5.68776-5.16803 22.4375-5.34375 22.4375-5.34375l-2-9.96875zm-84.46875,10.28125c2.81012.10067 16.73492.81576 22.125,5.5625 6.84665,6.02945 10.3152,23.37825 11.21875,28.5625h-1.15625c0,0-.76311,12.7907-5.65625,14.71875-9.76753,3.8487-28.3125-13.78125-28.3125-13.78125l-.78125,2.71875c-1.70553-1.51508-3.33259-3.13965-4.875-4.8125l.28125-1.21875c0,0-13.74216-16.50064-10.28125-24.71875 2.32551-5.52203 15.81939-6.88486 17.4375-7.03125z" filter="url(#filter7718)" opacity=".5"/>
<g transform="matrix(.51672,0,0,.51672,350.61301,-169.55832)">
<path d="m-784.33287-146.30314c0,0 48.87618-21.9244 74.92433-22.21894 26.2382-.29669 75.95776,20.66878 75.95776,20.66878l8.26751,41.33756c0,0-32.39705.33283-43.40444,10.33438-15.76235,14.32202-20.66877,60.45618-20.66877,60.45618l-38.23725-1.03344c0,0-6.59058-44.6263-22.21893-58.3893-11.56873-10.18792-44.9546-10.8511-44.9546-10.8511z" fill="url(#radialGradient9221)"/>
<path d="m-707.37674-276.97124c-83.94527,0-152,66.24319-152,147.96875s68.05473,147.96875 152,147.96875 152-66.24319 152-147.96875-68.05473-147.96875-152-147.96875zm0,17.78125c73.85569,0 133.75,58.28472 133.75,130.1875s-59.89431,130.1875-133.75,130.1875-133.71875-58.28472-133.71875-130.1875 59.86306-130.1875 133.71875-130.1875z" fill="url(#radialGradient9223)"/>
<path d="m-856.71588-165.1558 32.0366-9.30095c0,0 10.70265-10.25346 14.46815-16.53503 4.25996-7.10641 3.0875-17.23609 8.78423-23.25237 24.33717-25.70234 47.89466-40.55846 97.14326-42.88772 38.44307-1.8182 73.90936,20.57705 95.5931,49.08835 3.08774,4.05998 1.04491,10.31659 3.10032,14.98487 3.08214,7.00021 13.43471,18.6019 13.43471,18.6019l33.07004,9.30095 1.03344-3.61704c0,0-30.09487-116.17165-151.3988-114.71172-117.5609,1.41487-146.23161,112.64484-146.23161,112.64484z" fill="url(#linearGradient9225)"/>
<path d="m-791.90234-105.97725 11.88455-42.37099c0,0-30.87253,16.44481-46.50476,9.30094-7.18743-3.28463-5.68391-19.11861-5.68391-19.11861l-29.45301,10.33439c0,0-2.22036,49.14583 5.68391,71.824 8.33294,23.9081 42.371,63.03978 42.371,63.03978l7.23407-31.51989c0,0-26.59151-31.89224-19.8937-47.79655 4.78547-11.36335 34.36185-13.69307 34.36185-13.69307z" fill="url(#radialGradient9227)"/>
<path d="m-624.06223-107.97725-11.88455-42.37099c0,0 30.87253,16.44481 46.50476,9.30094 7.18743-3.28463 5.68391-19.11861 5.68391-19.11861l29.45301,10.33439c0,0 2.22036,49.14583-5.68391,71.824-8.33294,23.9081-42.371,63.03978-42.371,63.03978l-7.23407-31.51989c0,0 26.59151-31.89224 19.8937-47.79655-4.78547-11.36335-34.36185-13.69307-34.36185-13.69307z" fill="url(#radialGradient9229)"/>
<path d="m-730.21319-39.85511h42.3836c0,0-2.73039,23.97292 5.84601,28.49932 20.32432,10.72664 63.5754-26.67244 63.5754-26.67244l6.57677,29.23007c0,0-39.58791,32.74729-94.97859,32.51845-66.76147-.27582-97.20911-33.2492-97.20911-33.2492l8.03827-28.49932c0,0 35.90352,34.12073 54.80638,26.67244 9.46958-3.7313 10.96127-28.49932 10.96127-28.49932z" fill="url(#linearGradient9231)"/>
<path d="m-708.4375-165.40625c-23.11548,0-41.84375,18.72827-41.84375,41.84375s18.72827,41.875 41.84375,41.875 41.875-18.75952 41.875-41.875-18.75952-41.84375-41.875-41.84375zm0,8.78125c18.26408,0 33.09375,14.79842 33.09375,33.0625s-14.82967,33.09375-33.09375,33.09375-33.0625-14.82967-33.0625-33.09375 14.79842-33.0625 33.0625-33.0625z" filter="url(#filter7230)" opacity=".5"/>
<path d="m-427.85511-123.89156c0,21.1881-17.17636,38.36446-38.36446,38.36446s-38.36447-17.17636-38.36447-38.36446 17.17636-38.36447 38.36447-38.36447 38.36446,17.17636 38.36446,38.36447z" fill="url(#radialGradient9233)" transform="translate(-242.97494,1.09613)"/>
<path d="m-708.4375-165.40625c-23.11548,0-41.84375,18.72827-41.84375,41.84375s18.72827,41.875 41.84375,41.875 41.875-18.75952 41.875-41.875-18.75952-41.84375-41.875-41.84375zm0,8.78125c18.26408,0 33.09375,14.79842 33.09375,33.0625s-14.82967,33.09375-33.09375,33.09375-33.0625-14.82967-33.0625-33.09375 14.79842-33.0625 33.0625-33.0625z" fill="url(#linearGradient9235)"/>
<path d="m-500.70117-140.60402c0,5.9929-4.8582,10.85111-10.85111,10.85111s-10.85111-4.85821-10.85111-10.85111 4.85821-10.85111 10.85111-10.85111 10.85111,4.85821 10.85111,10.85111z" fill="url(#radialGradient9237)" transform="matrix(.2381,0,0,.2381,-586.49507,-127.40812)"/>
<path d="m-518.78635-181.16651-5.776,1.73681-4.39211-4.13376 1.38388-5.87056 5.77599-1.7368 4.39212,4.13375z" fill="url(#linearGradient9239)" opacity=".5" transform="matrix(.28602,0,0,.28602,-558.65365,-107.88566)"/>
<path d="m-500.70117-140.60402c0,5.9929-4.8582,10.85111-10.85111,10.85111s-10.85111-4.85821-10.85111-10.85111 4.85821-10.85111 10.85111-10.85111 10.85111,4.85821 10.85111,10.85111z" fill="url(#radialGradient9237)" transform="matrix(.2381,0,0,.2381,-586.49507,-53.40812)"/>
<path d="m-518.78635-181.16651-5.776,1.73681-4.39211-4.13376 1.38388-5.87056 5.77599-1.7368 4.39212,4.13375z" fill="url(#linearGradient9239)" opacity=".5" transform="matrix(.28602,0,0,.28602,-558.65365,-33.88566)"/>
<g transform="matrix(0,-1,1,0,-584.40795,-832.17848)">
<path d="m-500.70117-140.60402c0,5.9929-4.8582,10.85111-10.85111,10.85111s-10.85111-4.85821-10.85111-10.85111 4.85821-10.85111 10.85111-10.85111 10.85111,4.85821 10.85111,10.85111z" fill="url(#radialGradient9237)" transform="matrix(.2381,0,0,.2381,-586.49507,-127.40812)"/>
<path d="m-518.78635-181.16651-5.776,1.73681-4.39211-4.13376 1.38388-5.87056 5.77599-1.7368 4.39212,4.13375z" fill="url(#linearGradient9239)" opacity=".5" transform="matrix(.28602,0,0,.28602,-558.65365,-107.88566)"/>
<path d="m-500.70117-140.60402c0,5.9929-4.8582,10.85111-10.85111,10.85111s-10.85111-4.85821-10.85111-10.85111 4.85821-10.85111 10.85111-10.85111 10.85111,4.85821 10.85111,10.85111z" fill="url(#radialGradient9237)" transform="matrix(.2381,0,0,.2381,-586.49507,-53.40812)"/>
<path d="m-518.78635-181.16651-5.776,1.73681-4.39211-4.13376 1.38388-5.87056 5.77599-1.7368 4.39212,4.13375z" fill="url(#linearGradient9239)" opacity=".5" transform="matrix(.28602,0,0,.28602,-558.65365,-33.88566)"/>
</g>
<g transform="matrix(-.71083,-.70336,.70336,-.71083,-1124.6335,-710.13404)">
<path d="m-500.70117-140.60402c0,5.9929-4.8582,10.85111-10.85111,10.85111s-10.85111-4.85821-10.85111-10.85111 4.85821-10.85111 10.85111-10.85111 10.85111,4.85821 10.85111,10.85111z" fill="url(#radialGradient9237)" transform="matrix(.2381,0,0,.2381,-586.49507,-127.40812)"/>
<path d="m-518.78635-181.16651-5.776,1.73681-4.39211-4.13376 1.38388-5.87056 5.77599-1.7368 4.39212,4.13375z" fill="url(#linearGradient9239)" opacity=".5" transform="matrix(.28602,0,0,.28602,-558.65365,-107.88566)"/>
<path d="m-500.70117-140.60402c0,5.9929-4.8582,10.85111-10.85111,10.85111s-10.85111-4.85821-10.85111-10.85111 4.85821-10.85111 10.85111-10.85111 10.85111,4.85821 10.85111,10.85111z" fill="url(#radialGradient9237)" transform="matrix(.2381,0,0,.2381,-586.49507,-53.40812)"/>
<path d="m-518.78635-181.16651-5.776,1.73681-4.39211-4.13376 1.38388-5.87056 5.77599-1.7368 4.39212,4.13375z" fill="url(#linearGradient9239)" opacity=".5" transform="matrix(.28602,0,0,.28602,-558.65365,-33.88566)"/>
</g>
<g transform="matrix(.71083,-.70336,-.70336,-.71083,-291.95298,-710.13404)">
<path d="m-500.70117-140.60402c0,5.9929-4.8582,10.85111-10.85111,10.85111s-10.85111-4.85821-10.85111-10.85111 4.85821-10.85111 10.85111-10.85111 10.85111,4.85821 10.85111,10.85111z" fill="url(#radialGradient9237)" transform="matrix(.2381,0,0,.2381,-586.49507,-127.40812)"/>
<path d="m-518.78635-181.16651-5.776,1.73681-4.39211-4.13376 1.38388-5.87056 5.77599-1.7368 4.39212,4.13375z" fill="url(#linearGradient9239)" opacity=".5" transform="matrix(.28602,0,0,.28602,-558.65365,-107.88566)"/>
<path d="m-500.70117-140.60402c0,5.9929-4.8582,10.85111-10.85111,10.85111s-10.85111-4.85821-10.85111-10.85111 4.85821-10.85111 10.85111-10.85111 10.85111,4.85821 10.85111,10.85111z" fill="url(#radialGradient9237)" transform="matrix(.2381,0,0,.2381,-586.49507,-53.40812)"/>
<path d="m-518.78635-181.16651-5.776,1.73681-4.39211-4.13376 1.38388-5.87056 5.77599-1.7368 4.39212,4.13375z" fill="url(#linearGradient9239)" opacity=".5" transform="matrix(.28602,0,0,.28602,-558.65365,-33.88566)"/>
</g>
</g>
</g>
</svg>
