<?xml version="1.0" encoding="UTF-8" standalone="no"?>
<svg viewBox="0 0 761.66296 762.09686" xmlns="http://www.w3.org/2000/svg" xmlns:xlink="http://www.w3.org/1999/xlink">
<defs>
<filter id="filter4363-3">
<feGaussianBlur stdDeviation="5.54832"/>
</filter>
<linearGradient id="linearGradient4498-3">
<stop offset="0" stop-color="#fff"/>
<stop offset="1" stop-color="#fff" stop-opacity="0"/>
</linearGradient>
<linearGradient gradientTransform="matrix(-1.18532,0,0,-1.10918,1021.2088,851.15583)" gradientUnits="userSpaceOnUse" id="linearGradient14909" x1="467.75934" x2="472.8299" y1="416.00662" y2="357.69519">
<stop offset="0" stop-color="#fc0"/>
<stop offset="1" stop-color="#e9a71c" stop-opacity="0"/>
</linearGradient>
<linearGradient gradientUnits="userSpaceOnUse" id="linearGradient14907" x1="524.80316" x2="517.19733" xlink:href="#linearGradient4498-3" y1="69.94079" y2="159.94327"/>
<linearGradient gradientUnits="userSpaceOnUse" id="linearGradient14913" x1="447.07379" x2="468.94061" xlink:href="#linearGradient4498-3" y1="363.17584" y2="415.01865"/>
<radialGradient cx="559.28888" cy="467.44159" gradientTransform="matrix(.64399,1.26906,-1.30335,.66139,827.10486,-583.91265)" gradientUnits="userSpaceOnUse" id="radialGradient14903" r="112.82001">
<stop offset="0" stop-color="#ff0"/>
<stop offset="1" stop-color="#ff0" stop-opacity="0"/>
</radialGradient>
<radialGradient cx="463.95642" cy="402.79358" gradientTransform="matrix(2.66741,.97165,-1.05017,2.88298,-350.60226,-1209.9869)" gradientUnits="userSpaceOnUse" id="radialGradient14911" r="25.39958" xlink:href="#linearGradient4498-3"/>
</defs>
<g transform="matrix(2.96356,0,0,2.96356,1096.96885,-3145.25419)">
<g transform="translate(-737.57489,765.35632)">
<path d="m690.86407,537.70013c0,62.30877-50.51123,112.82001-112.82,112.82001s-112.82001-50.51124-112.82001-112.82001 50.51124-112.82 112.82001-112.82 112.82,50.51123 112.82,112.82z" fill="#eaa81c" transform="translate(-78.59372,-111.55234)"/>
<path d="m690.86407,537.70013c0,62.30877-50.51123,112.82001-112.82,112.82001s-112.82001-50.51124-112.82001-112.82001 50.51124-112.82 112.82001-112.82 112.82,50.51123 112.82,112.82z" fill="url(#radialGradient14903)" transform="matrix(1,0,0,1.00562,-78.59372,-114.57314)"/>
<path d="m690.86407,537.70013c0,62.30877-50.51123,112.82001-112.82,112.82001s-112.82001-50.51124-112.82001-112.82001 50.51124-112.82 112.82001-112.82 112.82,50.51123 112.82,112.82z" fill="url(#radialGradient14903)" transform="matrix(1,0,0,1.00562,-78.59372,-114.57314)"/>
<path d="m585.64992,109.23765c0,19.60276-30.64727,35.49393-68.45259,35.49393s-68.45259-15.89117-68.45259-35.49393 30.64726-35.49394 68.45259-35.49394 68.45259,15.89118 68.45259,35.49394z" fill="url(#linearGradient14907)" transform="matrix(.87963,0,0,1,45.77589,245.92228)"/>
<path d="m494.46879,315.88513c-44.64486.7251-86.72321,31.11724-101.28125,73.15625-13.41801,36.45605-5.86936,80.07388 19.59375,109.28125 24.45484,29.36708 64.79043,44.66734 102.72108,37.95981 33.18723-5.38656 63.53888-26.59245 79.33243-56.17249 16.36591-29.63054 18.32531-67.00913 4.32149-97.94357-15.13354-34.67069-48.83239-60.70739-86.72663-65.29644-5.94776-.83309-11.95729-1.15455-17.96087-.98481zm3.34375,2.53125c45.74786-.91102 89.4817,31.35854 102.21875,75.1875 11.13961,36.15611 1.66793,78.09562-24.96875,105.03125-24.66454,25.85514-62.89845,38.15299-98.05718,30.66605-38.22286-7.6514-71.07255-37.4631-81.25532-75.1973-9.74582-33.90659-1.50741-72.57936 21.81152-98.84883 19.93872-22.85706 49.7019-37.11491 80.25098-36.83867z" fill="#2b1100" filter="url(#filter4363-3)" opacity=".22"/>
</g>
<g transform="matrix(1.18916,0,0,1.18916,-848.84258,681.50941)">
<path d="m494.37979,402.69641c0,22.0531-12.20215,39.93068-27.25427,39.93068s-27.25427-17.87758-27.25427-39.93068 12.20215-39.93067 27.25427-39.93067 27.25427,17.87757 27.25427,39.93067z" fill="#e9a71c"/>
<path d="m468.58871,443.15017c17.59793-3.00257 24.95518-21.85856 25.18812-36.77632 .68007-15.85676-5.69946-35.69745-23.92871-40.41581-15.41007-.96838-25.25559,14.15997-27.33193,26.83709-4.28949,18.0448.98871,42.09999 20.73855,49.86977 1.78168.40549 3.59152.59731 5.33397.48527z" fill="url(#linearGradient14909)"/>
<path d="m468.23162,442.51661c16.96299-2.97794 24.05479-21.67926 24.27932-36.47465 .65554-15.72669-5.49382-35.40463-23.06535-40.08428-14.85407-.96044-24.34436,14.04381-26.34578,26.61695-4.13472,17.89678.95304,41.75464 19.9903,49.46069 1.71739.40216 3.46193.59241 5.14151.48129z" fill="#999"/>
<path d="m468.23162,442.51661c16.96299-2.97794 24.05479-21.67926 24.27932-36.47465 .65554-15.72669-5.49382-35.40463-23.06535-40.08428-14.85407-.96044-24.34436,14.04381-26.34578,26.61695-4.13472,17.89678.95304,41.75464 19.9903,49.46069 1.71739.40216 3.46193.59241 5.14151.48129z" fill="url(#radialGradient14911)"/>
<path d="m485.5063,400.16113c0,10.15143-6.52673,18.38079-14.57786,18.38079s-14.57787-8.22936-14.57787-18.38079 6.52673-18.38078 14.57787-18.38078 14.57786,8.22935 14.57786,18.38078z" transform="matrix(1.17391,0,0,1,-85.70352,2.53528)"/>
<path d="m485.5063,400.16113c0,10.15143-6.52673,18.38079-14.57786,18.38079s-14.57787-8.22936-14.57787-18.38079 6.52673-18.38078 14.57787-18.38078 14.57786,8.22935 14.57786,18.38078z" fill="url(#linearGradient14913)" transform="matrix(.47826,0,0,.62963,234.12604,150.17566)"/>
</g>
<g transform="matrix(1.1734,0,0,1.1734,-737.66037,685.58896)">
<path d="m494.37979,402.69641c0,22.0531-12.20215,39.93068-27.25427,39.93068s-27.25427-17.87758-27.25427-39.93068 12.20215-39.93067 27.25427-39.93067 27.25427,17.87757 27.25427,39.93067z" fill="#e9a71c"/>
<path d="m468.58871,443.15017c17.59793-3.00257 24.95518-21.85856 25.18812-36.77632 .68007-15.85676-5.69946-35.69745-23.92871-40.41581-15.41007-.96838-25.25559,14.15997-27.33193,26.83709-4.28949,18.0448.98871,42.09999 20.73855,49.86977 1.78168.40549 3.59152.59731 5.33397.48527z" fill="url(#linearGradient14909)"/>
<path d="m468.23162,442.51661c16.96299-2.97794 24.05479-21.67926 24.27932-36.47465 .65554-15.72669-5.49382-35.40463-23.06535-40.08428-14.85407-.96044-24.34436,14.04381-26.34578,26.61695-4.13472,17.89678.95304,41.75464 19.9903,49.46069 1.71739.40216 3.46193.59241 5.14151.48129z" fill="#999"/>
<path d="m468.23162,442.51661c16.96299-2.97794 24.05479-21.67926 24.27932-36.47465 .65554-15.72669-5.49382-35.40463-23.06535-40.08428-14.85407-.96044-24.34436,14.04381-26.34578,26.61695-4.13472,17.89678.95304,41.75464 19.9903,49.46069 1.71739.40216 3.46193.59241 5.14151.48129z" fill="url(#radialGradient14911)"/>
<path d="m485.5063,400.16113c0,10.15143-6.52673,18.38079-14.57786,18.38079s-14.57787-8.22936-14.57787-18.38079 6.52673-18.38078 14.57787-18.38078 14.57786,8.22935 14.57786,18.38078z" transform="matrix(1.17391,0,0,1,-85.70352,2.53528)"/>
<path d="m485.5063,400.16113c0,10.15143-6.52673,18.38079-14.57786,18.38079s-14.57787-8.22936-14.57787-18.38079 6.52673-18.38078 14.57787-18.38078 14.57786,8.22935 14.57786,18.38078z" fill="url(#linearGradient14913)" transform="matrix(.47826,0,0,.62963,233.67786,149.2793)"/>
</g>
<path d="m-225.14104,1106.8905c3.84885-4.5998 6.66093-6.6886 9.22531-9.322 2.70405-1.8587 6.42153-5.6195 9.40017-6.9162 4.44741-2.7146 6.43261-2.9229 10.26057-4.764 3.09987-1.2229 7.00526-2.026 10.84511-2.7464 3.61411-.4176 4.16057-.3776 6.60709-.746 6.56504.1718 13.3672-.2159 13.60848,3.3422-.19794.3-.2424.7097-.87258.701-.048.014-1.43604.1135-3.18843.3959-3.01057.5598-3.34049.3695-6.93102,1.3513-3.01681.8215-5.70781,1.7223-8.9855,3.0275-3.90139,1.8734-7.14927,2.9184-11.27559,5.8572-5.67818,3.8359-10.68341,8.1645-13.31517,9.9749-3.3438,1.6222-7.10973,6.1114-10.35668,7.904-4.01539,2.0076-7.44994-3.4726-5.02176-8.0594z"/>
<path d="m-261.09355,1109.937c-3.92915-4.6958-6.7999-6.8282-9.41779-9.5165-2.76047-1.8975-6.5555-5.7368-9.5963-7.0606-4.5402-2.7712-6.56682-2.9838-10.47464-4.8633-3.16456-1.2485-7.15143-2.0683-11.0714-2.8038-3.68951-.4263-4.24737-.3854-6.74494-.7615-6.70201.1753-13.64609-.2204-13.89241,3.4119 .20207.3063.24746.7246.89078.7156 .049.015 1.46601.1159 3.25496.4042 3.07338.5715 3.41019.3773 7.07563,1.3795 3.07975.8387 5.8269,1.7583 9.17298,3.0907 3.98279,1.9125 7.29844,2.9792 11.51085,5.9794 5.79665,3.916 10.90631,8.3349 13.59299,10.183 3.41356,1.6561 7.25806,6.2389 10.57275,8.0689 4.09918,2.0495 7.60539-3.545 5.12654-8.2275z"/>
<path d="m-311.90923,1257.0114c0-17.1807 31.63977-34.7724 70.66937-39.2923s69.59701,5.8807 70.66939,22.9245c.20707,3.2909-1.56421,5.2041-1.57038,5.3651-52.82413-21.9867-122.20919-7.6865-139.76838,11.0027z"/>
</g>
</svg>
