<?xml version="1.0" encoding="UTF-8" standalone="no"?>
<!-- Created with Inkscape (http://www.inkscape.org/) -->
<svg id="svg3132" xmlns:rdf="http://www.w3.org/1999/02/22-rdf-syntax-ns#" xmlns="http://www.w3.org/2000/svg" height="123.87" width="640" version="1.1" xmlns:cc="http://creativecommons.org/ns#" xmlns:dc="http://purl.org/dc/elements/1.1/">
 <metadata id="metadata3137">
  <rdf:RDF>
   <cc:Work rdf:about="">
    <dc:format>image/svg+xml</dc:format>
    <dc:type rdf:resource="http://purl.org/dc/dcmitype/StillImage"/>
    <dc:title/>
   </cc:Work>
  </rdf:RDF>
 </metadata>
 <g id="layer1" fill="#333" transform="translate(-156.15726,-367.21451)">
  <path id="path3188" d="m679.67,407.38c-3.4778-2.461-6.0048-4.9559-6.0048-8.0337h-19.338c0,5.5388-2.527,8.0337-5.6449,8.0337h-5.1644v56.236h100.42v-56.236h-64.629zm-6.0056,16.067-18.096,0,0-8.0337,20.084,0,0,6.4644zm33.991,31.276c-11.457,0-20.779-9.2018-20.779-20.513s9.3215-20.04,20.779-20.04c11.457,0,20.778,8.7283,20.778,20.04,0,11.311-9.3207,20.513-20.778,20.513zm11.17-20.513c0,6.0803-5.011,11.028-11.169,11.028-6.1591,0-11.17-4.9476-11.17-11.028,0-6.081,5.0109-11.027,11.17-11.027,6.1582,0,11.169,4.9468,11.169,11.027zm77.334-34.48-25.001,63.735-19.184-7.6934,0-10.862,13.323,5.4522,17.592-44.844-65.92-25.205-6.1099,19.034-11,0,11.248-32.135,85.053,32.519z"/>
  <g id="text3190" style="letter-spacing:0px;word-spacing:0px;" font-weight="normal" transform="matrix(4.129044,0,0,4.129044,-488.6229,-1536.6294)" font-size="23.68645096px" font-stretch="normal" line-height="125%" font-variant="normal" font-family="VomZom" font-style="normal">
   <path id="path3158" d="m164.38,467.99c1.1505,0.00001,2.2214,0.21424,3.2128,0.64268,0.99137,0.42846,1.8666,1.016,2.6256,1.7627,0.75903,0.74672,1.3528,1.6158,1.7812,2.6071,0.42843,0.99139,0.64266,2.0623,0.64268,3.2128-0.00002,1.1259-0.21425,2.1906-0.64268,3.1943-0.42847,1.0037-1.0222,1.8851-1.7812,2.6441-0.75905,0.75904-1.6342,1.3528-2.6256,1.7812-0.99139,0.42845-2.0623,0.64267-3.2128,0.64267h-4.9576v6.6094h-3.2677v-14.872c0-1.1505,0.21423-2.2214,0.64268-3.2128,0.42845-0.99136,1.0158-1.8604,1.7622-2.6071,0.74633-0.7467,1.6214-1.3343,2.6251-1.7627,1.0037-0.42844,2.0688-0.64267,3.1955-0.64268zm0,13.219c0.68506,0,1.3337-0.12849,1.946-0.38549,0.61223-0.257,1.1447-0.61186,1.5974-1.0646,0.45273-0.45273,0.80759-0.98521,1.0646-1.5974,0.25698-0.61223,0.38548-1.2609,0.38549-1.946-0.00001-0.68582-0.12851-1.3285-0.38549-1.928-0.25701-0.59952-0.61187-1.1258-1.0646-1.579-0.45274-0.45309-0.98522-0.80815-1.5974-1.0652-0.61224-0.25699-1.2609-0.38549-1.946-0.3855-0.68583,0.00001-1.3285,0.12851-1.928,0.3855-0.59954,0.257-1.1259,0.61206-1.579,1.0652-0.45311,0.45312-0.80816,0.97944-1.0652,1.579-0.257,0.59954-0.3855,1.2422-0.3855,1.928v4.9935h4.9576z"/>
   <path id="path3160" d="m174.16,467.91,3.2308,0,0,16.488-3.2308,0,0-16.488z"/>
   <path id="path3162" d="m187.1,478.32,0.11776,0,4.5925,6.1234,4.0037,0-6.2411-8.4785,5.5346-8.0075-4.0038,0-3.886,5.6523-0.11776,0-3.886-5.6523-4.0037,0,5.5346,8.0075-6.2411,8.4785,4.0038,0z"/>
   <path id="path3164" d="m203.13,467.91c1.1505,0.00001,2.2214,0.21424,3.2128,0.64267,0.99136,0.42847,1.8604,1.016,2.6071,1.7628,0.7467,0.74672,1.3343,1.6158,1.7627,2.6071,0.42844,0.99139,0.64267,2.0623,0.64268,3.2128v8.2624h-8.2254c-1.1259,0-2.1906-0.21422-3.1943-0.64268-1.0037-0.42845-1.8851-1.022-2.6441-1.7807-0.75904-0.75866-1.3528-1.6398-1.7812-2.6436-0.42845-1.0037-0.64267-2.0689-0.64267-3.1955,0-1.1505,0.21422-2.2214,0.64267-3.2128,0.42846-0.99136,1.0222-1.8604,1.7812-2.6071,0.75903-0.7467,1.6404-1.3343,2.6441-1.7628,1.0037-0.42843,2.0685-0.64266,3.1943-0.64267zm4.9576,13.22,0-4.9946c-0.00001-0.68506-0.12851-1.3276-0.38549-1.9275-0.25701-0.5999-0.61207-1.1262-1.0652-1.579-0.45312-0.45272-0.97944-0.80759-1.579-1.0646-0.59954-0.25698-1.2422-0.38548-1.928-0.38549-0.68508,0.00001-1.3337,0.12851-1.946,0.38549-0.61224,0.25701-1.1447,0.61188-1.5974,1.0646-0.45274,0.45274-0.8076,0.97906-1.0646,1.579-0.257,0.59992-0.38549,1.2424-0.38549,1.9275,0,0.68583,0.12849,1.3347,0.38549,1.9465,0.257,0.61187,0.61186,1.1444,1.0646,1.5974,0.45273,0.45311,0.98521,0.80816,1.5974,1.0652,0.61223,0.257,1.2609,0.38549,1.946,0.38549z"/>
   <path id="path3166" d="m221.19,467.99c1.1505,0.00001,2.2214,0.21424,3.2128,0.64268,0.99136,0.42846,1.8604,1.016,2.6071,1.7627,0.7467,0.74672,1.3343,1.6158,1.7628,2.6071,0.42843,0.99139,0.64266,2.0623,0.64267,3.2128-0.00001,1.1259-0.21424,2.1906-0.64267,3.1943-0.42847,1.0037-1.016,1.8851-1.7628,2.6441-0.74672,0.75904-1.6158,1.3528-2.6071,1.7812-0.99139,0.42845-2.0623,0.64267-3.2128,0.64267-1.1266,0-2.1918-0.21422-3.1955-0.64267-1.0037-0.42846-1.8849-1.0222-2.6436-1.7812-0.75867-0.75903-1.3522-1.6404-1.7807-2.6441-0.42846-1.0037-0.64268-2.0685-0.64268-3.1943v-14.835h3.2677v6.6094h4.9946zm0,13.219c0.68506,0,1.3276-0.12849,1.9275-0.38549s1.1262-0.61186,1.579-1.0646c0.45272-0.45273,0.80759-0.98521,1.0646-1.5974,0.25698-0.61223,0.38548-1.2609,0.38549-1.946-0.00001-0.68582-0.12851-1.3285-0.38549-1.928-0.25701-0.59952-0.61188-1.1258-1.0646-1.579-0.45274-0.45309-0.97906-0.80815-1.579-1.0652-0.59992-0.25699-1.2424-0.38549-1.9275-0.3855h-4.9946v4.9576c0,0.68508,0.12849,1.3337,0.38549,1.946,0.257,0.61224,0.61205,1.1447,1.0652,1.5974,0.4531,0.45274,0.98558,0.8076,1.5974,1.0646,0.61185,0.257,1.2607,0.38549,1.9465,0.38549z"/>
   <path id="path3168" d="m238.9,467.91c1.1505,0.00001,2.2214,0.21424,3.2128,0.64267,0.99137,0.42847,1.8604,1.016,2.6071,1.7628,0.7467,0.74672,1.3343,1.6158,1.7628,2.6071,0.42843,0.99139,0.64266,2.0623,0.64268,3.2128v8.2624h-8.2254c-1.1259,0-2.1906-0.21422-3.1943-0.64268-1.0037-0.42845-1.8851-1.022-2.6441-1.7807-0.75904-0.75866-1.3528-1.6398-1.7812-2.6436-0.42845-1.0037-0.64268-2.0689-0.64268-3.1955,0-1.1505,0.21423-2.2214,0.64268-3.2128,0.42845-0.99136,1.0222-1.8604,1.7812-2.6071,0.75904-0.7467,1.6404-1.3343,2.6441-1.7628,1.0037-0.42843,2.0685-0.64266,3.1943-0.64267zm4.9576,13.22,0-4.9946c-0.00001-0.68506-0.12851-1.3276-0.38549-1.9275-0.25701-0.5999-0.61206-1.1262-1.0652-1.579-0.45311-0.45272-0.97943-0.80759-1.579-1.0646-0.59954-0.25698-1.2422-0.38548-1.928-0.38549-0.68508,0.00001-1.3337,0.12851-1.946,0.38549-0.61224,0.25701-1.1447,0.61188-1.5974,1.0646-0.45274,0.45274-0.8076,0.97906-1.0646,1.579-0.257,0.59992-0.3855,1.2424-0.3855,1.9275,0,0.68583,0.1285,1.3347,0.3855,1.9465,0.25699,0.61187,0.61185,1.1444,1.0646,1.5974,0.45273,0.45311,0.98521,0.80816,1.5974,1.0652,0.61223,0.257,1.2609,0.38549,1.946,0.38549z"/>
   <path id="path3170" d="m265.11,467.95,0,14.835c-0.00002,1.1513-0.21425,2.2226-0.64268,3.214-0.42847,0.99138-1.016,1.8664-1.7628,2.6251-0.74672,0.75866-1.6158,1.3522-2.6071,1.7807-0.99139,0.42845-2.0623,0.64267-3.2128,0.64268h-1.6529v-3.2677h1.6529c0.68507-0.00001,1.3276-0.1285,1.9275-0.3855s1.1262-0.61205,1.579-1.0652c0.45272-0.45311,0.80759-0.98559,1.0646-1.5974,0.25698-0.61186,0.38548-1.2607,0.38549-1.9465v-0.0359c-0.68508,0.53865-1.4499,0.95477-2.2945,1.2484-0.84458,0.2936-1.7319,0.4404-2.662,0.4404-1.1266,0-2.1918-0.21422-3.1955-0.64267-1.0037-0.42846-1.8849-1.022-2.6436-1.7807-0.75866-0.75866-1.3522-1.6398-1.7807-2.6436-0.42845-1.0037-0.64268-2.0689-0.64268-3.1955v-8.2254h3.2677v8.2254c0,0.68583,0.1285,1.3347,0.3855,1.9465,0.25699,0.61187,0.61204,1.1444,1.0652,1.5974,0.4531,0.45311,0.98559,0.80816,1.5974,1.0652,0.61186,0.257,1.2607,0.38549,1.9465,0.38549,0.68507,0,1.3276-0.12849,1.9275-0.38549s1.1262-0.61205,1.579-1.0652c0.45272-0.4531,0.80759-0.98558,1.0646-1.5974,0.25698-0.61185,0.38548-1.2607,0.38549-1.9465v-8.2254z"/>
  </g>
 </g>
</svg>
