<?xml version="1.0" encoding="UTF-8" standalone="no"?>
<svg viewBox="0 0 761.66296 762.09686" xmlns="http://www.w3.org/2000/svg" xmlns:xlink="http://www.w3.org/1999/xlink">
<defs>
<filter id="filter4946-4-8">
<feGaussianBlur stdDeviation="6.82551"/>
</filter>
<filter id="filter4363-7-2">
<feGaussianBlur stdDeviation="5.54832"/>
</filter>
<filter id="filter4798-2-2">
<feGaussianBlur stdDeviation=".27037"/>
</filter>
<linearGradient id="linearGradient4437-7-0">
<stop offset="0" stop-color="#ff0"/>
<stop offset="1" stop-color="#ff0" stop-opacity="0"/>
</linearGradient>
<linearGradient id="linearGradient4585-2-5">
<stop offset="0" stop-color="#fff"/>
<stop offset="1" stop-color="#fff" stop-opacity="0"/>
</linearGradient>
<linearGradient gradientTransform="matrix(-1.18532,0,0,-.97611,-249.7095,1226.6051)" gradientUnits="userSpaceOnUse" id="linearGradient7010" x1="467.75934" x2="472.8299" y1="416.00662" y2="357.69519">
<stop offset="0" stop-color="#fc0"/>
<stop offset="1" stop-color="#e9a71c" stop-opacity="0"/>
</linearGradient>
<linearGradient gradientTransform="matrix(1.0814,0,0,.93075,-41.40203,32.59945)" gradientUnits="userSpaceOnUse" id="linearGradient6977" x1="502.40823" x2="500.61551" y1="461.66278" y2="508.72153">
<stop offset="0" stop-color="#f9e608"/>
<stop offset="1" stop-color="#f9e608" stop-opacity="0"/>
</linearGradient>
<linearGradient gradientUnits="userSpaceOnUse" id="linearGradient6949" x1="498.18271" x2="504.52094" xlink:href="#linearGradient4437-7-0" y1="518.0517" y2="422.34485"/>
<linearGradient gradientUnits="userSpaceOnUse" id="linearGradient6965" x1="447.07379" x2="468.94061" xlink:href="#linearGradient4585-2-5" y1="363.17584" y2="415.01865"/>
<linearGradient gradientUnits="userSpaceOnUse" id="linearGradient6979" x1="505.09726" x2="501.06369" xlink:href="#linearGradient4437-7-0" y1="435.44434" y2="500.87842"/>
<linearGradient gradientUnits="userSpaceOnUse" id="linearGradient6985" x1="524.80316" x2="517.19733" xlink:href="#linearGradient4585-2-5" y1="69.94079" y2="159.94327"/>
<linearGradient gradientUnits="userSpaceOnUse" id="linearGradient7042" x1="463.32259" x2="457.30132" xlink:href="#linearGradient4585-2-5" y1="328.85637" y2="372.58998"/>
<linearGradient gradientUnits="userSpaceOnUse" id="linearGradient7038" x1="-876.5233" x2="-882.54457" xlink:href="#linearGradient4585-2-5" y1="754.23929" y2="797.9729"/>
<radialGradient cx="559.28888" cy="467.44159" gradientTransform="matrix(.64399,1.26906,-1.30335,.66139,827.10486,-583.91265)" gradientUnits="userSpaceOnUse" id="radialGradient6959" r="112.82001" xlink:href="#linearGradient4437-7-0"/>
<radialGradient cx="463.95642" cy="402.79358" gradientTransform="matrix(2.66741,.82907,-1.05017,2.45992,-1688.7474,-543.44151)" gradientUnits="userSpaceOnUse" id="radialGradient7017" r="25.39958" xlink:href="#linearGradient4585-2-5"/>
<radialGradient cx="463.95642" cy="402.79358" gradientTransform="matrix(2.66741,.83617,-1.05017,2.481,-1621.5206,-555.4691)" gradientUnits="userSpaceOnUse" id="radialGradient7006" r="25.39958" xlink:href="#linearGradient4585-2-5"/>
</defs>
<g transform="matrix(3.06511,0,0,3.06511,2962.4887,-2231.12157)">
<path d="m690.86407,537.70013c0,62.30877-50.51123,112.82001-112.82,112.82001s-112.82001-50.51124-112.82001-112.82001 50.51124-112.82 112.82001-112.82 112.82,50.51123 112.82,112.82z" fill="url(#linearGradient6949)" filter="url(#filter4946-4-8)" opacity=".33" transform="matrix(.76279,0,0,.61507,-1277.6469,480.82649)"/>
<path d="m690.86407,537.70013c0,62.30877-50.51123,112.82001-112.82,112.82001s-112.82001-50.51124-112.82001-112.82001 50.51124-112.82 112.82001-112.82 112.82,50.51123 112.82,112.82z" fill="url(#linearGradient6949)" filter="url(#filter4946-4-8)" opacity=".33" transform="matrix(.76279,0,0,.61853,-1277.6469,478.96848)"/>
<path d="m690.86407,537.70013c0,62.30877-50.51123,112.82001-112.82,112.82001s-112.82001-50.51124-112.82001-112.82001 50.51124-112.82 112.82001-112.82 112.82,50.51123 112.82,112.82z" fill="url(#linearGradient6949)" filter="url(#filter4946-4-8)" opacity=".33" transform="matrix(.76279,0,0,.61853,-1277.6469,478.96848)"/>
<path d="m585.64992,109.23765c0,19.60276-30.64727,35.49393-68.45259,35.49393s-68.45259-15.89117-68.45259-35.49393 30.64726-35.49394 68.45259-35.49394 68.45259,15.89118 68.45259,35.49394z" fill="url(#linearGradient6949)" filter="url(#filter4946-4-8)" opacity=".33" transform="matrix(.67097,0,0,.61507,-1182.779,700.69911)"/>
<path d="m494.46879,315.88513c-44.64486.7251-86.72321,31.11724-101.28125,73.15625-13.41801,36.45605-5.86936,80.07388 19.59375,109.28125 24.45484,29.36708 64.79043,44.66734 102.72108,37.95981 33.18723-5.38656 63.53888-26.59245 79.33243-56.17249 16.36591-29.63054 18.32531-67.00913 4.32149-97.94357-15.13354-34.67069-48.83239-60.70739-86.72663-65.29644-5.94776-.83309-11.95729-1.15455-17.96087-.98481zm3.34375,2.53125c45.74786-.91102 89.4817,31.35854 102.21875,75.1875 11.13961,36.15611 1.66793,78.09562-24.96875,105.03125-24.66454,25.85514-62.89845,38.15299-98.05718,30.66605-38.22286-7.6514-71.07255-37.4631-81.25532-75.1973-9.74582-33.90659-1.50741-72.57936 21.81152-98.84883 19.93872-22.85706 49.7019-37.11491 80.25098-36.83867z" fill="url(#linearGradient6949)" filter="url(#filter4363-7-2)" opacity=".0726" transform="matrix(.76279,0,0,.61507,-1217.6964,549.43921)"/>
<path d="m690.86407,537.70013c0,62.30877-50.51123,112.82001-112.82,112.82001s-112.82001-50.51124-112.82001-112.82001 50.51124-112.82 112.82001-112.82 112.82,50.51123 112.82,112.82z" fill="#eaa81c" transform="translate(-1418.4396,313.83058)"/>
<path d="m690.86407,537.70013c0,62.30877-50.51123,112.82001-112.82,112.82001s-112.82001-50.51124-112.82001-112.82001 50.51124-112.82 112.82001-112.82 112.82,50.51123 112.82,112.82z" fill="url(#radialGradient6959)" transform="matrix(1,0,0,1.00562,-1418.4396,310.80978)"/>
<path d="m690.86407,537.70013c0,62.30877-50.51123,112.82001-112.82,112.82001s-112.82001-50.51124-112.82001-112.82001 50.51124-112.82 112.82001-112.82 112.82,50.51123 112.82,112.82z" fill="url(#radialGradient6959)" transform="matrix(1,0,0,1.00562,-1418.4396,310.80978)"/>
<path d="m-845.37705,741.26805c-44.64486.7251-86.72321,31.11724-101.28125,73.15625-13.41801,36.45605-5.86936,80.07388 19.59375,109.28125 24.45484,29.36708 64.79043,44.66734 102.72108,37.95981 33.18723-5.38656 63.53888-26.59245 79.33243-56.17249 16.36591-29.63054 18.32531-67.00913 4.32149-97.94357-15.13354-34.67069-48.83239-60.70739-86.72663-65.29644-5.94776-.83309-11.95729-1.15455-17.96087-.98481zm3.34375,2.53125c45.74786-.91102 89.4817,31.35854 102.21875,75.1875 11.13961,36.15611 1.66793,78.09562-24.96875,105.03125-24.66454,25.85514-62.89845,38.15299-98.05718,30.66605-38.22286-7.6514-71.07255-37.4631-81.25532-75.1973-9.74582-33.90659-1.50741-72.57936 21.81152-98.84883 19.93872-22.85706 49.7019-37.11491 80.25098-36.83867z" fill="#2b1100" filter="url(#filter4363-7-2)" opacity=".22"/>
<path d="m-843.7653,827.84638c0,22.0531-2.37949,34.44286-26.30354,34.2263-22.02552-.19938-28.205-12.1732-28.205-34.2263s12.20215-39.93067 27.25427-39.93067 27.25427,17.87757 27.25427,39.93067z" fill="#e9a71c"/>
<path d="m-864.28832,860.22341c16.96299-2.57284 18.42964-14.52231 18.65417-25.07855 .65554-13.58731-5.49382-30.58837-23.06535-34.63142-14.85407-.82979-24.34436,12.13337-26.34578,22.99612-4.13472,15.4622 3.32987,36.62216 17.29656,36.57183 1.71739.34745 11.38469.0327 13.4604.14202z" fill="#999"/>
<path d="m-865.79364,860.07696c16.56685-.1749 19.93496-12.00821 20.15949-24.63247 .65554-13.41889-5.49382-30.2092-23.06535-34.20214-14.85407-.8195-24.34436,11.98296-26.34578,22.71107-4.13472,15.27053 2.53759,35.89778 17.77193,35.98329 1.71739.34315 9.80013.23508 11.47971.14025z" fill="url(#radialGradient7017)"/>
<path d="m485.5063,400.16113c0,10.15143-6.52673,18.38079-14.57786,18.38079s-14.57787-8.22936-14.57787-18.38079 6.52673-18.38078 14.57787-18.38078 14.57786,8.22935 14.57786,18.38078z" transform="matrix(1.11023,-.3814,.22191,.64597,-1474.52677,768.38031)"/>
<path d="m485.5063,400.16113c0,10.15143-6.52673,18.38079-14.57786,18.38079s-14.57787-8.22936-14.57787-18.38079 6.52673-18.38078 14.57787-18.38078 14.57786,8.22935 14.57786,18.38078z" fill="url(#linearGradient6965)" transform="matrix(.45231,-.15539,.13972,.40672,-1130.43127,753.88479)"/>
<path d="m-776.53851,827.84638c0,22.0531-2.37949,34.44286-26.30354,34.2263-22.02552-.19938-28.205-12.1732-28.205-34.2263s12.20215-39.93067 27.25427-39.93067 27.25427,17.87757 27.25427,39.93067z" fill="#e9a71c"/>
<path d="m-802.09191,862.04117c17.59793-2.64234 24.7175-13.72805 24.95044-26.85608 .68007-13.95437-5.69946-31.41471-23.92871-35.56699-15.41007-.8522-25.25559,12.46115-27.33193,23.61735-4.28949,15.87991-.67507,31.54106 19.07477,38.37867 1.78168.35684 3.90057-2.2771 7.23543.42705z" fill="url(#linearGradient7010)"/>
<path d="m-797.06153,860.22331c16.96299-2.58248 18.42964-14.57675 18.65417-25.17256 .65554-13.63826-5.49382-30.70305-23.06535-34.76126-14.85407-.8329-24.34436,12.17886-26.34578,23.08233-4.13472,15.52016 3.32987,36.75945 17.29656,36.70894 1.71739.34875 11.38469.0328 13.4604.14255z" fill="#999"/>
<path d="m-798.56685,860.07616c16.56685-.1764 19.93496-12.11112 20.15949-24.84355 .65554-13.53388-5.49382-30.46807-23.06535-34.49522-14.85407-.82653-24.34436,12.08564-26.34578,22.90567-4.13472,15.40139 2.53759,36.2054 17.77193,36.29164 1.71739.34609 9.80013.23709 11.47971.14146z" fill="url(#radialGradient7006)"/>
<path d="m485.5063,400.16113c0,10.15143-6.52673,18.38079-14.57786,18.38079s-14.57787-8.22936-14.57787-18.38079 6.52673-18.38078 14.57787-18.38078 14.57786,8.22935 14.57786,18.38078z" transform="matrix(1.11064,.38019,-.20146,.58854,-1252.86771,434.82063)"/>
<path d="m485.5063,400.16113c0,10.15143-6.52673,18.38079-14.57786,18.38079s-14.57787-8.22936-14.57787-18.38079 6.52673-18.38078 14.57787-18.38078 14.57786,8.22935 14.57786,18.38078z" fill="url(#linearGradient6965)" transform="matrix(.45248,.15489,-.12685,.37056,-969.4547,626.25783)"/>
<g transform="matrix(1,0,0,.89984,-1372.1147,365.08466)">
<path d="m502.74806,508.36682c34.93523-2.28315 17.08682-10.50211 17.27636-18.40221-5.27296-8.3974-2.95685-13.97463-17.78955-16.47337-12.5388-.51283-19.20532,4.80973-20.89479,11.52327 1.43971,10.22839-17.58008,23.15706 15.52068,23.09532 1.44971.21473 3.06176.1423 5.8873.25699z" fill="#e9a71c"/>
<path d="m502.27136,509.93545c30.02448-4.71284 24.77834-11.183 21.95417-16.83576-6.18686-12.55736-11.07328-19.69352-22.2668-21.17609-11.86318-.53423-17.37606,8.25992-21.38404,14.58136-3.77436,9.95492-13.67988,20.65924 15.33012,23.16277 1.56772.22369 3.43217-1.42748 6.36655.26772z" fill="url(#linearGradient6977)"/>
<path d="m502.27136,509.93545c30.02448-4.71284 24.77834-11.183 21.95417-16.83576-6.18686-12.55736-11.07328-19.69352-22.2668-21.17609-11.86318-.53423-17.37606,8.25992-21.38404,14.58136-3.77436,9.95492-13.67988,20.65924 15.33012,23.16277 1.56772.22369 3.43217-1.42748 6.36655.26772z" fill="url(#linearGradient6979)"/>
</g>
<g transform="matrix(1.00443,0,0,.92341,-1306.995,353.96358)">
<path d="m502.74806,508.36682c34.93523-2.28315 17.08682-10.50211 17.27636-18.40221-5.27296-8.3974-2.95685-13.97463-17.78955-16.47337-12.5388-.51283-19.20532,4.80973-20.89479,11.52327 1.43971,10.22839-17.58008,23.15706 15.52068,23.09532 1.44971.21473 3.06176.1423 5.8873.25699z" fill="#e9a71c"/>
<path d="m502.27136,509.93545c30.02448-4.71284 24.77834-11.183 21.95417-16.83576-6.18686-12.55736-11.07328-19.69352-22.2668-21.17609-11.86318-.53423-17.37606,8.25992-21.38404,14.58136-3.77436,9.95492-13.67988,20.65924 15.33012,23.16277 1.56772.22369 3.43217-1.42748 6.36655.26772z" fill="url(#linearGradient6977)"/>
<path d="m502.27136,509.93545c30.02448-4.71284 24.77834-11.183 21.95417-16.83576-6.18686-12.55736-11.07328-19.69352-22.2668-21.17609-11.86318-.53423-17.37606,8.25992-21.38404,14.58136-3.77436,9.95492-13.67988,20.65924 15.33012,23.16277 1.56772.22369 3.43217-1.42748 6.36655.26772z" fill="url(#linearGradient6979)"/>
</g>
<path d="m585.64992,109.23765c0,19.60276-30.64727,35.49393-68.45259,35.49393s-68.45259-15.89117-68.45259-35.49393 30.64726-35.49394 68.45259-35.49394 68.45259,15.89118 68.45259,35.49394z" fill="url(#linearGradient6985)" transform="matrix(.87963,0,0,1,-1294.0699,671.3052)"/>
<g transform="matrix(.98846,.15145,-.15145,.98846,111.20367,127.99306)">
<path d="m-775.35562,791.59155c-1.58455-10.14113-16.84084-16.99218-27.75114-16.99218s-14.70555,3.15221-14.54709,5.21213c0,0 .39124,6.31073 6.06129,2.72937 3.85961-2.43784 14.09547-3.59083 24.24513,3.60977 5.6813,4.03055 4.24289,7.94149 7.27354,7.94149s4.40136-.91603 4.71827-2.50058z" stroke="#000" stroke-width=".52184"/>
<path d="m466.27684,349.5717c-9.67413.553-21.03226,4.29004-24.6875,14.09375 2.39866,1.5748 2.97755-2.46976 4.21875-3.59375 7.26541-9.05906 21.31341-12.13258 31.75-6.84375 2.09323.32042.1104-2.68336-1.1875-2.46875-3.23273-.68353-6.6947-1.46308-10.09375-1.1875z" fill="url(#linearGradient7042)" filter="url(#filter4798-2-2)" transform="matrix(-1,0,0,1,-336.1988,426.01674)"/>
</g>
<g transform="matrix(.90886,.4171,-.4171,.90886,258.327,436.31452)">
<path d="m-900.68904,790.95773c1.58455-10.14113 16.84084-16.99218 27.75114-16.99218s14.70555,3.15221 14.54709,5.21213c0,0-.39124,6.31073-6.06129,2.72937-3.85961-2.43784-14.09547-3.59083-24.24513,3.60977-5.6813,4.03055-4.24289,7.94149-7.27354,7.94149s-4.40136-.91603-4.71827-2.50058z" stroke="#000" stroke-width=".52184"/>
<path d="m-873.569,774.95462c-9.67413.553-21.03226,4.29004-24.6875,14.09375 2.39866,1.5748 2.97755-2.46976 4.21875-3.59375 7.26541-9.05906 21.31341-12.13258 31.75-6.84375 2.09323.32042.1104-2.68336-1.1875-2.46875-3.23273-.68353-6.6947-1.46308-10.09375-1.1875z" fill="url(#linearGradient7038)" filter="url(#filter4798-2-2)"/>
</g>
<path d="m-826.50158,923.69666c0,12.95182-15.03987,23.45134-33.59248,23.45134s-33.59247-10.49952-33.59247-23.45134 15.03986-23.45135 33.59247-23.45135 33.59248,10.49952 33.59248,23.45135z" transform="matrix(.97264,-.43842,.6415,.66473,-581.93709,-59.02508)"/>
</g>
</svg>
