<?xml version="1.0" encoding="UTF-8" standalone="no"?>
<svg viewBox="0 0 761.66296 762.09686" xmlns="http://www.w3.org/2000/svg" xmlns:xlink="http://www.w3.org/1999/xlink">
<defs>
<filter id="filter4363-3-9">
<feGaussianBlur stdDeviation="5.54832"/>
</filter>
<linearGradient id="linearGradient4585-2-8">
<stop offset="0" stop-color="#fff"/>
<stop offset="1" stop-color="#fff" stop-opacity="0"/>
</linearGradient>
<linearGradient gradientTransform="matrix(-1.18532,0,0,-1.10918,1021.2088,851.15583)" gradientUnits="userSpaceOnUse" id="linearGradient4996" x1="467.75934" x2="472.8299" y1="416.00662" y2="357.69519">
<stop offset="0" stop-color="#fc0"/>
<stop offset="1" stop-color="#e9a71c" stop-opacity="0"/>
</linearGradient>
<linearGradient gradientUnits="userSpaceOnUse" id="linearGradient5008" x1="345.05143" x2="345.0514" y1="623.49261" y2="689.38707">
<stop offset="0" stop-color="#2b0000"/>
<stop offset="1" stop-color="#f00"/>
</linearGradient>
<linearGradient gradientUnits="userSpaceOnUse" id="linearGradient5000" x1="447.07379" x2="468.94061" xlink:href="#linearGradient4585-2-8" y1="363.17584" y2="415.01865"/>
<linearGradient gradientTransform="matrix(3.07357,0,0,3.49417,-1172.002,-154.91725)" gradientUnits="userSpaceOnUse" id="linearGradient5010" x1="524.80316" x2="517.19733" xlink:href="#linearGradient4585-2-8" y1="69.94079" y2="159.94327"/>
<radialGradient cx="559.28888" cy="467.44159" gradientTransform="matrix(1.89371,3.75272,-3.83258,1.95578,1157.4051,-2900.8288)" gradientUnits="userSpaceOnUse" id="radialGradient4992" r="112.82001">
<stop offset="0" stop-color="#ff0"/>
<stop offset="1" stop-color="#ff0" stop-opacity="0"/>
</radialGradient>
<radialGradient cx="463.95642" cy="402.79358" gradientTransform="matrix(2.66741,.97165,-1.05017,2.88298,-350.60226,-1209.9869)" gradientUnits="userSpaceOnUse" id="radialGradient4998" r="25.39958" xlink:href="#linearGradient4585-2-8"/>
</defs>
<g transform="translate(-39.79305,-34.76961)">
<path d="m756.78059,415.87206c0,183.22279-148.53139,331.75421-331.75418,331.75421s-331.75421-148.53142-331.75421-331.75421 148.53142-331.75418 331.75421-331.75418 331.75418,148.53139 331.75418,331.75418z" fill="#eaa81c"/>
<path d="m756.78059,415.87202c0,184.25214-148.53139,333.61801-331.75418,333.61801s-331.75421-149.36587-331.75421-333.61801 148.53142-333.61798 331.75421-333.61798 331.75418,149.36585 331.75418,333.61798z" fill="url(#radialGradient4992)"/>
<path d="m756.78059,415.87202c0,184.25214-148.53139,333.61801-331.75418,333.61801s-331.75421-149.36587-331.75421-333.61801 148.53142-333.61798 331.75421-333.61798 331.75418,149.36585 331.75418,333.61798z" fill="url(#radialGradient4992)"/>
<path d="m-1232.6844,909.14086c-44.6449.7251-86.7232,31.11724-101.2813,73.15625-13.418,36.45609-5.8693,80.07389 19.5938,109.28129 24.4548,29.367 64.7904,44.6673 102.7211,37.9598 33.1872-5.3866 63.5388-26.5925 79.3324-56.1725 16.3659-29.6306 18.3253-67.0092 4.3215-97.94359-15.1335-34.67069-48.8324-60.70739-86.7266-65.29644-5.9478-.83309-11.9573-1.15455-17.9609-.98481zm3.3437,2.53125c45.7479-.91102 89.4817,31.35854 102.2188,75.1875 11.1396,36.15609 1.6679,78.09559-24.9688,105.03129-24.6645,25.8551-62.8984,38.153-98.0571,30.666-38.2229-7.6514-71.0726-37.4631-81.2554-75.1973-9.7458-33.9066-1.5074-72.57935 21.8116-98.84882 19.9387-22.85706 49.7019-37.11491 80.2509-36.83867z" fill="#2b1100" filter="url(#filter4363-3-9)" opacity=".22" transform="matrix(2.94056,0,0,2.94056,4035.1625,-2581.747)"/>
<g transform="matrix(3.49681,0,0,3.49681,-1430.4691,-1061.4334)">
<path d="m494.37979,402.69641c0,22.0531-12.20215,39.93068-27.25427,39.93068s-27.25427-17.87758-27.25427-39.93068 12.20215-39.93067 27.25427-39.93067 27.25427,17.87757 27.25427,39.93067z" fill="#e9a71c"/>
<path d="m468.58871,443.15017c17.59793-3.00257 24.95518-21.85856 25.18812-36.77632 .68007-15.85676-5.69946-35.69745-23.92871-40.41581-15.41007-.96838-25.25559,14.15997-27.33193,26.83709-4.28949,18.0448.98871,42.09999 20.73855,49.86977 1.78168.40549 3.59152.59731 5.33397.48527z" fill="url(#linearGradient4996)"/>
<path d="m468.23162,442.51661c16.96299-2.97794 24.05479-21.67926 24.27932-36.47465 .65554-15.72669-5.49382-35.40463-23.06535-40.08428-14.85407-.96044-24.34436,14.04381-26.34578,26.61695-4.13472,17.89678.95304,41.75464 19.9903,49.46069 1.71739.40216 3.46193.59241 5.14151.48129z" fill="#999"/>
<path d="m468.23162,442.51661c16.96299-2.97794 24.05479-21.67926 24.27932-36.47465 .65554-15.72669-5.49382-35.40463-23.06535-40.08428-14.85407-.96044-24.34436,14.04381-26.34578,26.61695-4.13472,17.89678.95304,41.75464 19.9903,49.46069 1.71739.40216 3.46193.59241 5.14151.48129z" fill="url(#radialGradient4998)"/>
<path d="m485.5063,400.16113c0,10.15143-6.52673,18.38079-14.57786,18.38079s-14.57787-8.22936-14.57787-18.38079 6.52673-18.38078 14.57787-18.38078 14.57786,8.22935 14.57786,18.38078z" transform="matrix(1.17391,0,0,1,-85.70352,2.53528)"/>
<path d="m485.5063,400.16113c0,10.15143-6.52673,18.38079-14.57786,18.38079s-14.57787-8.22936-14.57787-18.38079 6.52673-18.38078 14.57787-18.38078 14.57786,8.22935 14.57786,18.38078z" fill="url(#linearGradient5000)" transform="matrix(.47826,0,0,.62963,234.12604,150.17566)"/>
</g>
<g transform="matrix(3.77493,0,0,3.77493,-1354.358,-1170.8734)">
<path d="m494.37979,402.69641c0,22.0531-12.20215,39.93068-27.25427,39.93068s-27.25427-17.87758-27.25427-39.93068 12.20215-39.93067 27.25427-39.93067 27.25427,17.87757 27.25427,39.93067z" fill="#e9a71c"/>
<path d="m468.58871,443.15017c17.59793-3.00257 24.95518-21.85856 25.18812-36.77632 .68007-15.85676-5.69946-35.69745-23.92871-40.41581-15.41007-.96838-25.25559,14.15997-27.33193,26.83709-4.28949,18.0448.98871,42.09999 20.73855,49.86977 1.78168.40549 3.59152.59731 5.33397.48527z" fill="url(#linearGradient4996)"/>
<path d="m468.23162,442.51661c16.96299-2.97794 24.05479-21.67926 24.27932-36.47465 .65554-15.72669-5.49382-35.40463-23.06535-40.08428-14.85407-.96044-24.34436,14.04381-26.34578,26.61695-4.13472,17.89678.95304,41.75464 19.9903,49.46069 1.71739.40216 3.46193.59241 5.14151.48129z" fill="#999"/>
<path d="m468.23162,442.51661c16.96299-2.97794 24.05479-21.67926 24.27932-36.47465 .65554-15.72669-5.49382-35.40463-23.06535-40.08428-14.85407-.96044-24.34436,14.04381-26.34578,26.61695-4.13472,17.89678.95304,41.75464 19.9903,49.46069 1.71739.40216 3.46193.59241 5.14151.48129z" fill="url(#radialGradient4998)"/>
<path d="m485.5063,400.16113c0,10.15143-6.52673,18.38079-14.57786,18.38079s-14.57787-8.22936-14.57787-18.38079 6.52673-18.38078 14.57787-18.38078 14.57786,8.22935 14.57786,18.38078z" transform="matrix(1.17391,0,0,1,-85.70352,2.53528)"/>
<path d="m485.5063,400.16113c0,10.15143-6.52673,18.38079-14.57786,18.38079s-14.57787-8.22936-14.57787-18.38079 6.52673-18.38078 14.57787-18.38078 14.57786,8.22935 14.57786,18.38078z" fill="url(#linearGradient5000)" transform="matrix(.47826,0,0,.62963,233.67786,149.2793)"/>
</g>
<path d="m257.63448,178.06635c-7.77573-9.29277-13.4569-13.51277-18.63758-18.83283-5.46297-3.7551-12.97317-11.35292-18.99073-13.97267-8.98519-5.48415-12.99582-5.90494-20.7292-9.62446-6.26252-2.47066-14.15234-4.09297-21.91013-5.54854-7.30141-.84365-8.4053-.76279-13.3478-1.50704-13.26311.34698-27.00553-.43609-27.49278,6.75212 .39992.60605.48961,1.43381 1.76287,1.41617 .097.0294 2.90116.22936 6.4413.79983 6.08226,1.13094 6.74888.74661 14.00266,2.73002 6.09461,1.65965 11.53112,3.47957 18.15297,6.11637 7.88188,3.7848 14.44345,5.89583 22.77965,11.83311 11.47143,7.74956 21.58343,16.4945 26.90026,20.15197 6.75535,3.27725 14.36347,12.34654 20.92327,15.96813 8.11213,4.05592 15.05068-7.01559 10.14524-16.28218z"/>
<path d="m519.35065,523.39716c0,66.39259-75.51745,134.37368-168.67268,151.84003s-166.11351-22.72525-168.67298-88.58854c-.49431-12.71735 3.73363-20.11051 3.74833-20.73302 126.07983,84.96488 291.68727,29.70379 333.59733-42.51847z"/>
<path d="m519.35065,523.39716c0,66.39259-75.51745,134.37368-168.67268,151.84003s-166.11351-22.72525-168.67298-88.58854c-.49431-12.71735 3.73363-20.11051 3.74833-20.73302 126.07983,84.96488 291.68727,29.70379 333.59733-42.51847z" fill="url(#linearGradient5008)"/>
<path d="m628.03689,226.77756c0,68.49536-94.19668,124.02179-210.39416,124.02179s-210.39416-55.52643-210.39416-124.02179 94.19665-124.02181 210.39416-124.02181 210.39416,55.52645 210.39416,124.02181z" fill="url(#linearGradient5010)"/>
<path d="m331.99511,189.24901c7.77573-9.29276 13.45689-13.51276 18.63757-18.83283 5.46298-3.7551 12.97317-11.35292 18.99074-13.97267 8.98518-5.48414 12.99581-5.90494 20.7292-9.62445 6.26251-2.47067 14.15233-4.09297 21.90983-5.54855 7.30171-.84365 8.40559-.76278 13.34809-1.50704 13.26311.34699 27.00524-.43608 27.49278,6.75212-.39991.60605-.4896,1.43382-1.76286,1.41617-.097.0294-2.90116.22937-6.4413.79984-6.08226,1.13094-6.74889.74661-14.00267,2.73001-6.0946,1.65966-11.53112,3.47957-18.15297,6.11637-7.88188,3.7848-14.44345,5.89583-22.77965,11.83312-11.47142,7.74955-21.58343,16.49449-26.90026,20.15196-6.75535,3.27726-14.36346,12.34654-20.92327,15.96813-8.11213,4.05592-15.05068-7.01559-10.14523-16.28218z"/>
</g>
</svg>
